# xmcd CD database file
# Copyright (C) 1993-1998 Ti Kan
#
# Track frame offsets:
#	150
#	14143
#	33289
#	52419
#	66151
#	93835
#	113868
#	127497
#	142562
#	151198
#	169496
#	193197
#	204296
#
# Disc length: 2871 seconds
#
# Revision: 1
# Processed by: cddbd v1.4b41PL1 Copyright (c) Steve Scherf et al.
# Submitted via: CDValet v3.31 - Copyright (c) 1997 Greg Leichner
#
DISCID=bd0b350d
DTITLE=Marva Wright - My Christmas Song
DYEAR=1900
DGENRE=
TTITLE0=Go Tell It On The Mountain
TTITLE1=My Christmas Song
TTITLE2=Silent Night
TTITLE3=Marva's Holiday Shuffle
TTITLE4=I'll Be Fine
TTITLE5=A Holiday Medley
TTITLE6=Christmas Tears
TTITLE7=Jesus, Oh What A Wonderful Child
TTITLE8=When Was Jesus Born
TTITLE9=A King Is Born Today
TTITLE10=What Christmas Means To Me
TTITLE11=Christmas Comes But Once A Year
TTITLE12=Auld Lang Syne
EXTD=
EXTT0=
EXTT1=
EXTT2=
EXTT3=
EXTT4=
EXTT5=
EXTT6=
EXTT7=
EXTT8=
EXTT9=
EXTT10=
EXTT11=
EXTT12=
PLAYORDER=
